# xmcd
# 
# Track frame offsets:
#     150
#     7096
#     35605
#     106901
#     120282
#     127981
#     159566
# 
# Disc length: 2602
# 
# Revision: 0
# Processed by: cddbd v1.5.2PL0 Copyright (c) Steve Scherf et al.
# Submitted via: fre:ac v1.0.17
# 
DISCID=4e0a2807
DTITLE=Arbeitskreis fuer moderne Instrumentalmusik - AFMI
DYEAR=0
DGENRE=
TTITLE0=de facto
TTITLE1=unschaerfe
TTITLE2=tanz der nymphen
TTITLE3=extempore
TTITLE4=lutsch
TTITLE5=schwellkoerper
TTITLE6=rueckenlage
EXTD=
EXTT0=
EXTT1=
EXTT2=
EXTT3=
EXTT4=
EXTT5=
EXTT6=
PLAYORDER=
